PathFileType	4	(X/Y/Z)	./resultDataOpenSim/trcMotMarkerGrf/sub10/qtm-01-03.trc
DataRate	CameraRate	NumFrames	NumMarkers	Units	OrigDataRate	OrigDataStartFrame	OrigNumFrames
250.000000	250.000000	10	24	m	250.000000	61	482
Frame#	Time	L.Toe.Tip			R.Toe.Tip			L.Ankle.Lat			R.Ankle.Lat			L.Ankle.Med			R.Ankle.Med			L.Heel			R.Heel			L.Knee.Lat			R.Knee.Lat			L.Knee.Med			R.Knee.Med			L.Thigh.Upper			R.Thigh.Upper			L.ASIS			R.ASIS			V.Sacral			L.Acromium			R.Acromium			C7			L.Elbow			R.Elbow			L.Wrist.Lat			R.Wrist.Lat
		X1	Y1	Z1	X2	Y2	Z2	X3	Y3	Z3	X4	Y4	Z4	X5	Y5	Z5	X6	Y6	Z6	X7	Y7	Z7	X8	Y8	Z8	X9	Y9	Z9	X10	Y10	Z10	X11	Y11	Z11	X12	Y12	Z12	X13	Y13	Z13	X14	Y14	Z14	X15	Y15	Z15	X16	Y16	Z16	X17	Y17	Z17	X18	Y18	Z18	X19	Y19	Z19	X20	Y20	Z20	X21	Y21	Z21	X22	Y22	Z22	X23	Y23	Z23	X24	Y24	Z24

61	0.24	-1.4120876	0.070677344	-0.10518775	-0.71616114	0.039375743	0.037628588	-1.3906102	0.20344635	-0.15234332	-0.85602907	0.052131863	0.077133674	-1.3646918	0.19972023	-0.072339173	-0.8396538	0.081242102	-0.0054830047	-1.4253709	0.25950463	-0.10812761	-0.90785729	0.028126353	0.030402892	-1.0751381	0.40546849	-0.17388585	-0.84291832	0.45166684	0.11793924	-1.056466	0.36656088	-0.058842134	-0.84805248	0.46047594	-0.0093425191	-1.0107614	0.77845665	-0.19718396	-0.94338371	0.85949016	0.1791695	-0.93888838	0.89071301	-0.1457313	-0.89490099	0.93177266	0.091099252	-1.11547	0.93533883	0.0028746881	-0.95309139	1.3868878	-0.16770462	-0.9940618	1.3751785	0.15362051	-1.0579034	1.4149742	-0.016697079	-1.0305229	1.0483184	-0.23076581	-1.1361705	1.0591722	0.18099344	-0.83743381	0.88891452	-0.20171676	-1.0924484	0.83295167	0.25581185
62	0.244	-1.4011344	0.072843359	-0.10546498	-0.71608172	0.039305395	0.037556621	-1.3794878	0.20599178	-0.15189471	-0.85613942	0.052073393	0.077240846	-1.3535118	0.20183259	-0.071816439	-0.8394065	0.081259196	-0.0054774917	-1.4142625	0.26190609	-0.10730066	-0.90793746	0.028097418	0.030453313	-1.0629868	0.40582274	-0.17368126	-0.84127637	0.45191087	0.11837241	-1.0439989	0.36758689	-0.058585177	-0.84590297	0.46058049	-0.0089521918	-1.0040968	0.77932522	-0.19680249	-0.93803618	0.86028022	0.17921418	-0.93298771	0.89225527	-0.14572894	-0.88910731	0.93237279	0.09115092	-1.1100189	0.93627596	0.0034419643	-0.94769725	1.3881164	-0.1673862	-0.98790532	1.3762592	0.15403705	-1.0524047	1.4162574	-0.015894475	-1.0259662	1.0498473	-0.23028533	-1.1282326	1.0591374	0.18147599	-0.83372152	0.88922264	-0.20253494	-1.0823928	0.83323417	0.25663806
63	0.248	-1.3892954	0.074758598	-0.10561522	-0.71602188	0.039260977	0.03752632	-1.3682267	0.20833716	-0.15141223	-0.85626231	0.051995393	0.077359357	-1.3421607	0.20393721	-0.071296793	-0.83920769	0.081294947	-0.0054455502	-1.4032966	0.26402338	-0.10631995	-0.90801786	0.028072833	0.030496821	-1.0507617	0.40641117	-0.1733985	-0.83966026	0.45210691	0.11877267	-1.0307537	0.36884685	-0.058609927	-0.84347691	0.46070951	-0.0086443151	-0.99753907	0.78029762	-0.19643968	-0.93285131	0.86099785	0.17926038	-0.92690334	0.8939033	-0.14566748	-0.88347478	0.93299703	0.091181836	-1.1046334	0.93722744	0.0039286331	-0.94237593	1.3893817	-0.1670696	-0.98180657	1.3773572	0.15447106	-1.0469284	1.4175421	-0.015117944	-1.0213874	1.0513892	-0.22977077	-1.1196424	1.0591531	0.18229231	-0.83000047	0.88955181	-0.20331424	-1.0722274	0.83359521	0.25745628
64	0.252	-1.3765131	0.07652195	-0.10577889	-0.71598753	0.039238433	0.037528018	-1.356769	0.21048144	-0.15089193	-0.85639281	0.051902844	0.077485341	-1.3305933	0.2060183	-0.07078629	-0.83905251	0.081344778	-0.0053737163	-1.3924495	0.2658612	-0.10537736	-0.90809361	0.028051299	0.030530364	-1.0385275	0.40719566	-0.17304197	-0.83805295	0.45219744	0.1191798	-1.0171463	0.37023779	-0.058776156	-0.84094457	0.46086436	-0.008377149	-0.99109928	0.78136653	-0.1960608	-0.92782812	0.86165929	0.1793329	-0.92077617	0.89560909	-0.1456038	-0.87805393	0.93366635	0.091185446	-1.0992847	0.93818765	0.0043158265	-0.93713307	1.3906778	-0.16675629	-0.97576532	1.3784776	0.15492351	-1.0414792	1.4188277	-0.014369054	-1.0167664	1.0529474	-0.22922675	-1.1107383	1.0592845	0.18361784	-0.82616541	0.88991837	-0.20399955	-1.0619859	0.83401123	0.25822635
65	0.256	-1.3629213	0.078161785	-0.10598992	-0.71599046	0.039230673	0.037552588	-1.3450904	0.21245291	-0.15033411	-0.85652589	0.051808274	0.077612405	-1.3188498	0.20804978	-0.070274855	-0.83893444	0.081402659	-0.0052588001	-1.381724	0.26741928	-0.1045829	-0.90816206	0.028029691	0.030554183	-1.0263445	0.40812976	-0.17262362	-0.83647593	0.45220273	0.11961544	-1.004209	0.37155825	-0.05869346	-0.83855608	0.46102393	-0.0080702381	-0.98481794	0.78250527	-0.19564831	-0.92297007	0.86227364	0.17943074	-0.91482211	0.89730277	-0.1456266	-0.87277219	0.93439721	0.091226858	-1.0939542	0.93916554	0.004585647	-0.93196034	1.3919979	-0.16643688	-0.96977692	1.3796316	0.1553891	-1.0360621	1.4201086	-0.013652365	-1.0121137	1.0545241	-0.22866495	-1.101972	1.0595343	0.18529438	-0.8222704	0.89032296	-0.20459769	-1.051669	0.83446782	0.25893369
66	0.26	-1.3487239	0.079659369	-0.10621805	-0.71603658	0.039233418	0.037598674	-1.3332299	0.214269	-0.14974765	-0.85666123	0.051724557	0.077734718	-1.3070335	0.20999774	-0.069751922	-0.83885239	0.081463418	-0.0051065929	-1.3710986	0.26868688	-0.10389811	-0.90822425	0.028005683	0.030573725	-1.0142524	0.40917695	-0.17216721	-0.83496049	0.45217479	0.12008255	-0.9924682	0.37271173	-0.058123377	-0.8364473	0.46116207	-0.0076765838	-0.97873352	0.78369487	-0.19523691	-0.91827427	0.86284204	0.17953764	-0.90916295	0.89893632	-0.14577492	-0.8675342	0.93519723	0.091384146	-1.0886432	0.94017784	0.0047119029	-0.92684795	1.3933435	-0.16609543	-0.96383084	1.3808287	0.1558617	-1.0306813	1.421382	-0.012972023	-1.0074974	1.0561152	-0.22812339	-1.0936609	1.059858	0.18677863	-0.81844448	0.89075544	-0.20515007	-1.041282	0.83497428	0.25959839
67	0.264	-1.3340711	0.080995356	-0.10643625	-0.71612238	0.039249289	0.037670553	-1.3212625	0.2159241	-0.14914573	-0.85680137	0.051657402	0.077850536	-1.295228	0.21181673	-0.069210949	-0.83881091	0.08152595	-0.0049279024	-1.360523	0.26965138	-0.10323212	-0.90828344	0.027979642	0.030596017	-1.0022374	0.41032811	-0.17170713	-0.83355182	0.45215325	0.12057713	-0.98130887	0.37381809	-0.057235233	-0.8345964	0.46126726	-0.0072130138	-0.97282933	0.78494907	-0.1948695	-0.91371503	0.8633826	0.17965991	-0.90378177	0.90050553	-0.14602416	-0.86234738	0.93606595	0.091669162	-1.0833762	0.94122765	0.0046581388	-0.92178784	1.3947193	-0.16572611	-0.95792447	1.3820725	0.15633583	-1.0253332	1.4226483	-0.012324966	-1.0029872	1.0577158	-0.22763309	-1.0858669	1.0602199	0.18767092	-0.81478117	0.89120847	-0.20569907	-1.0309033	0.83554288	0.26025835
68	0.268	-1.3190609	0.082165553	-0.10663072	-0.71624095	0.039285859	0.037775604	-1.3092317	0.21740622	-0.14854055	-0.85694706	0.051602684	0.077963242	-1.2834038	0.21345988	-0.068652473	-0.8388193	0.081594063	-0.0047314417	-1.3499415	0.27030409	-0.10253688	-0.90834192	0.027953734	0.030624896	-0.99024554	0.41159472	-0.17126501	-0.83229784	0.45215506	0.12109711	-0.96988469	0.37505147	-0.056335603	-0.83292472	0.46134466	-0.0067196405	-0.96702738	0.78630251	-0.19453781	-0.90922807	0.86393281	0.17983583	-0.89858524	0.90204035	-0.14632566	-0.85731834	0.93699437	0.092028297	-1.0781926	0.94229548	0.0043894651	-0.91676992	1.3961286	-0.16533413	-0.95206797	1.3833549	0.15681183	-1.0200106	1.4239085	-0.011706595	-0.99859066	1.0593246	-0.22717999	-1.078365	1.0606034	0.18819373	-0.81133724	0.89167922	-0.20628392	-1.0206333	0.83617152	0.26094134
69	0.272	-1.3037652	0.083175693	-0.10678848	-0.71639014	0.039349198	0.037923017	-1.2971199	0.21870216	-0.1479418	-0.8570964	0.051551878	0.078076961	-1.2714086	0.21490365	-0.068088127	-0.83889169	0.081672991	-0.004516353	-1.3393054	0.27064113	-0.1018204	-0.90840034	0.027928691	0.030659662	-0.97824726	0.41297758	-0.17083426	-0.83120463	0.45217887	0.12164479	-0.95814421	0.37645564	-0.055528644	-0.83137657	0.46140455	-0.006220499	-0.96126099	0.78777366	-0.19420832	-0.90473188	0.86452159	0.18010234	-0.89346705	0.90357727	-0.14663409	-0.85251379	0.93796631	0.092403111	-1.0731075	0.94336918	0.0039159857	-0.91178338	1.3975692	-0.1649208	-0.94627337	1.3846606	0.15729727	-1.0147072	1.4251646	-0.011114037	-0.9942687	1.0609432	-0.22672714	-1.0708286	1.0609949	0.18889254	-0.80812999	0.89216558	-0.20692062	-1.0104967	0.836852	0.26162691
70	0.276	-1.2882263	0.084028233	-0.10690183	-0.71657735	0.039436868	0.038114961	-1.2848828	0.21979146	-0.14735166	-0.85724768	0.051499652	0.078190785	-1.2590902	0.21615771	-0.06753471	-0.83904132	0.081765175	-0.0042730536	-1.3285756	0.27066423	-0.10111713	-0.90846114	0.027906261	0.030687743	-0.96625895	0.4144515	-0.17039816	-0.83019664	0.45222394	0.12222332	-0.94651096	0.37797122	-0.054752797	-0.8299306	0.46144413	-0.0057223394	-0.95554401	0.78934356	-0.19388955	-0.90020877	0.86515685	0.18045705	-0.88834425	0.90513537	-0.14691043	-0.84783495	0.93896202	0.092781884	-1.0680774	0.94447104	0.0033243583	-0.90682432	1.3990327	-0.16448332	-0.9405499	1.3859812	0.1578011	-1.0094166	1.42642	-0.010542865	-0.98998544	1.0625707	-0.226259	-1.0631138	1.0613971	0.19004263	-0.80509881	0.89266551	-0.20757761	-1.0003973	0.83758513	0.26225954
